# xmcd
#
# Track frame offsets:
# 150
# 18539
# 39778
# 63887
# 87076
# 102771
# 122226
# 140434
# 163087
#
# Disc length: 2590 seconds
#
#
# Revision: 0
# Processed by: cddbd v1.5.2PL0 Copyright (c) Steve Scherf et al.
# Submitted via: Nero 7, 11, 10, 0 
#
DISCID=6b0a1c09
DTITLE=Scott Ellison - Live At Joey's
DYEAR=1995
DGENRE=Blues
TTITLE0=I'm Ready Baby
TTITLE1=Should 'A' Been Out An' Gone
TTITLE2=I've Been Down Too Long
TTITLE3=Chains Of Love
TTITLE4=Love Pains
TTITLE5=Live With Me
TTITLE6=Bad Attitude
TTITLE7=Crosscut Saw
TTITLE8=Down-Down Baby
EXTD=
EXTT0=I'm Ready Baby
EXTT1=Should 'A' Been Out An' Gone
EXTT2=I've Been Down Too Long
EXTT3=Chains Of Love
EXTT4=Love Pains
EXTT5=Live With Me
EXTT6=Bad Attitude
EXTT7=Crosscut Saw
EXTT8=Down-Down Baby
PLAYORDER=
